# xmcd CD database file
#
# Track frame offsets:
#	150
#	24042
#	46482
#	70157
#	89692
#	110962
#	129952
#	148605
#	173980
#	191832
#	218612
#	250387
#	269760
#	292402
#
# Disc length: 4161 seconds
#
# Revision: 5
# Processed by: cddbd v1.5.2PL0 Copyright (c) Steve Scherf et al.
# Submitted via: CDex 1.77
#
DISCID=e3103f0e
DTITLE=The O'Jays - Emotionally Yours
DYEAR=1991
DGENRE=R&B
TTITLE0=Don't Let Me Down
TTITLE1=Something For Nothing
TTITLE2=Emotionally Yours (R&B Version)
TTITLE3=Respect featuring The Jaz
TTITLE4=Keep On Lovin' Me
TTITLE5=Love and Trust
TTITLE6=Don't You Know True Love
TTITLE7=Emotionally Yours (Gospel Version)
TTITLE8=That's How Love Is
TTITLE9=Closer To You
TTITLE10=If I Fine Love Again featuring Najee
TTITLE11=Keep On Pleasin' Me
TTITLE12=Lies
TTITLE13=Make It Feel Good
EXTD=YEAR: 1991
EXTT0=
EXTT1=
EXTT2=
EXTT3=
EXTT4=
EXTT5=
EXTT6=
EXTT7=
EXTT8=
EXTT9=
EXTT10=
EXTT11=
EXTT12=
EXTT13=
PLAYORDER=
